<svg width="54" height="54" viewBox="0 0 54 54" fill="none" xmlns="http://www.w3.org/2000/svg"><circle cx="27" cy="27" r="27" fill="black"/><path d="M35.44 38L32.704 30.584H22.768L20.032 38H16L25.756 12.188H29.788L39.508 38H35.44ZM29.032 19.964C28.96 19.7 28.828 19.304 28.636 18.776C28.468 18.224 28.3 17.672 28.132 17.12C27.964 16.544 27.832 16.076 27.736 15.716C27.616 16.196 27.472 16.724 27.304 17.3C27.16 17.852 27.016 18.368 26.872 18.848C26.728 19.304 26.608 19.676 26.512 19.964L23.92 27.2H31.624L29.032 19.964Z" fill="white"/></svg>