<svg width="289" height="76" viewBox="0 0 289 76" fill="none" xmlns="http://www.w3.org/2000/svg">
<path d="M183.322 50.0402C183.576 50.0669 183.842 50.0869 184.122 50.1002C184.416 50.1135 184.682 50.1202 184.922 50.1202C185.122 50.1202 185.442 50.1202 185.882 50.1202C186.336 50.1069 186.842 50.0935 187.402 50.0802C187.976 50.0669 188.542 50.0536 189.102 50.0402C189.662 50.0136 190.162 49.9869 190.602 49.9602C191.056 49.9336 191.389 49.9135 191.602 49.9002C191.962 49.8735 192.236 49.8469 192.422 49.8202C192.622 49.7936 192.776 49.7602 192.882 49.7202L193.982 51.1602C193.782 51.2936 193.576 51.4269 193.362 51.5602C193.149 51.6935 192.936 51.8469 192.722 52.0202C192.469 52.2069 192.136 52.4669 191.722 52.8002C191.322 53.1202 190.889 53.4802 190.422 53.8802C189.956 54.2669 189.496 54.6469 189.042 55.0202C188.589 55.3936 188.182 55.7269 187.822 56.0202C188.222 55.8869 188.622 55.8002 189.022 55.7602C189.422 55.7069 189.822 55.6802 190.222 55.6802C191.329 55.6802 192.322 55.8936 193.202 56.3202C194.082 56.7469 194.776 57.3202 195.282 58.0402C195.789 58.7602 196.042 59.5936 196.042 60.5402C196.042 61.5936 195.762 62.5336 195.202 63.3602C194.656 64.1869 193.856 64.8335 192.802 65.3002C191.762 65.7669 190.496 66.0002 189.002 66.0002C188.082 66.0002 187.276 65.8735 186.582 65.6202C185.889 65.3669 185.349 65.0136 184.962 64.5602C184.589 64.0936 184.402 63.5602 184.402 62.9602C184.402 62.4669 184.536 62.0069 184.802 61.5802C185.082 61.1402 185.469 60.7936 185.962 60.5402C186.469 60.2736 187.049 60.1402 187.702 60.1402C188.609 60.1402 189.362 60.3269 189.962 60.7002C190.576 61.0602 191.042 61.5402 191.362 62.1402C191.696 62.7402 191.876 63.3935 191.902 64.1002L190.082 64.3602C190.042 63.5602 189.809 62.9069 189.382 62.4002C188.969 61.8936 188.409 61.6402 187.702 61.6402C187.276 61.6402 186.922 61.7536 186.642 61.9802C186.376 62.2069 186.242 62.4735 186.242 62.7802C186.242 63.2202 186.462 63.5669 186.902 63.8202C187.356 64.0736 187.936 64.2002 188.642 64.2002C189.776 64.2002 190.742 64.0602 191.542 63.7802C192.342 63.4869 192.949 63.0669 193.362 62.5202C193.776 61.9602 193.982 61.2869 193.982 60.5002C193.982 59.8736 193.796 59.3136 193.422 58.8202C193.049 58.3269 192.536 57.9469 191.882 57.6802C191.229 57.4002 190.482 57.2602 189.642 57.2602C188.842 57.2602 188.109 57.3536 187.442 57.5402C186.789 57.7136 186.176 57.9736 185.602 58.3202C185.029 58.6536 184.462 59.0735 183.902 59.5802C183.356 60.0735 182.789 60.6402 182.202 61.2802L180.742 59.8002C181.142 59.4802 181.582 59.1202 182.062 58.7202C182.542 58.3202 183.022 57.9202 183.502 57.5202C183.996 57.1069 184.456 56.7202 184.882 56.3602C185.322 55.9869 185.689 55.6802 185.982 55.4402C186.262 55.2135 186.602 54.9402 187.002 54.6202C187.402 54.2869 187.816 53.9402 188.242 53.5802C188.669 53.2202 189.076 52.8802 189.462 52.5602C189.849 52.2269 190.169 51.9469 190.422 51.7202C190.209 51.7336 189.916 51.7469 189.542 51.7602C189.169 51.7735 188.756 51.7936 188.302 51.8202C187.862 51.8336 187.416 51.8536 186.962 51.8802C186.509 51.8936 186.096 51.9135 185.722 51.9402C185.349 51.9536 185.062 51.9669 184.862 51.9802C184.622 51.9936 184.369 52.0136 184.102 52.0402C183.849 52.0536 183.609 52.0735 183.382 52.1002L183.322 50.0402Z" fill="black"/>
<path d="M167.683 49.3201C167.643 49.5201 167.596 49.7467 167.543 50.0001C167.49 50.2534 167.443 50.4867 167.403 50.7001C167.35 50.9667 167.283 51.3001 167.203 51.7001C167.136 52.0867 167.063 52.4934 166.983 52.9201C166.903 53.3334 166.816 53.7334 166.723 54.1201C166.59 54.6801 166.423 55.3267 166.223 56.0601C166.023 56.7934 165.79 57.5801 165.523 58.4201C165.27 59.2467 164.976 60.0934 164.643 60.9601C164.323 61.8134 163.97 62.6534 163.583 63.4801C163.21 64.2934 162.803 65.0534 162.363 65.7601L160.303 64.9401C160.77 64.3134 161.203 63.6201 161.603 62.8601C162.003 62.0867 162.37 61.2934 162.703 60.4801C163.036 59.6534 163.336 58.8401 163.603 58.0401C163.87 57.2401 164.096 56.5001 164.283 55.8201C164.483 55.1267 164.636 54.5334 164.743 54.0401C164.93 53.1867 165.076 52.3334 165.183 51.4801C165.303 50.6267 165.356 49.8267 165.343 49.0801L167.683 49.3201ZM174.583 51.3401C174.89 51.7534 175.216 52.2734 175.563 52.9001C175.91 53.5267 176.25 54.1934 176.583 54.9001C176.93 55.6067 177.236 56.2867 177.503 56.9401C177.783 57.5934 178.003 58.1534 178.163 58.6201L176.183 59.5401C176.05 59.0067 175.856 58.4067 175.603 57.7401C175.363 57.0601 175.083 56.3734 174.763 55.6801C174.456 54.9867 174.123 54.3334 173.763 53.7201C173.416 53.0934 173.07 52.5667 172.723 52.1401L174.583 51.3401ZM160.083 53.5801C160.416 53.5934 160.736 53.6001 161.043 53.6001C161.363 53.6001 161.69 53.5934 162.023 53.5801C162.343 53.5667 162.736 53.5467 163.203 53.5201C163.67 53.4801 164.17 53.4401 164.703 53.4001C165.25 53.3467 165.79 53.3001 166.323 53.2601C166.87 53.2067 167.37 53.1667 167.823 53.1401C168.276 53.1134 168.643 53.1001 168.923 53.1001C169.576 53.1001 170.156 53.2067 170.663 53.4201C171.17 53.6201 171.57 53.9801 171.863 54.5001C172.17 55.0201 172.323 55.7467 172.323 56.6801C172.323 57.4667 172.29 58.3201 172.223 59.2401C172.156 60.1467 172.036 61.0201 171.863 61.8601C171.703 62.6867 171.476 63.3801 171.183 63.9401C170.863 64.6334 170.443 65.0934 169.923 65.3201C169.416 65.5601 168.81 65.6801 168.103 65.6801C167.73 65.6801 167.323 65.6534 166.883 65.6001C166.443 65.5467 166.056 65.4801 165.723 65.4001L165.403 63.3201C165.67 63.3867 165.956 63.4534 166.263 63.5201C166.583 63.5867 166.883 63.6401 167.163 63.6801C167.443 63.7067 167.67 63.7201 167.843 63.7201C168.203 63.7201 168.516 63.6601 168.783 63.5401C169.063 63.4067 169.296 63.1467 169.483 62.7601C169.683 62.3467 169.85 61.8134 169.983 61.1601C170.116 60.5067 170.216 59.8067 170.283 59.0601C170.35 58.3134 170.383 57.5934 170.383 56.9001C170.383 56.3134 170.296 55.8801 170.123 55.6001C169.963 55.3201 169.73 55.1334 169.423 55.0401C169.116 54.9334 168.756 54.8801 168.343 54.8801C168.023 54.8801 167.583 54.9067 167.023 54.9601C166.476 55.0001 165.89 55.0534 165.263 55.1201C164.636 55.1867 164.056 55.2534 163.523 55.3201C162.99 55.3734 162.57 55.4201 162.263 55.4601C162.01 55.4867 161.683 55.5267 161.283 55.5801C160.896 55.6334 160.563 55.6867 160.283 55.7401L160.083 53.5801Z" fill="black"/>
<path d="M149.143 63.3802C149.996 63.2469 150.796 63.0536 151.543 62.8002C152.303 62.5336 152.97 62.1936 153.543 61.7802C154.13 61.3536 154.583 60.8336 154.903 60.2202C155.223 59.5936 155.376 58.8736 155.363 58.0602C155.363 57.6602 155.29 57.2669 155.143 56.8802C154.996 56.4936 154.77 56.1402 154.463 55.8202C154.156 55.4869 153.776 55.2269 153.323 55.0402C152.883 54.8402 152.363 54.7402 151.763 54.7402C150.496 54.7402 149.296 55.0669 148.163 55.7202C147.043 56.3602 145.996 57.1869 145.023 58.2002V55.9802C146.236 54.8469 147.45 54.0536 148.663 53.6002C149.89 53.1336 151.03 52.9002 152.083 52.9002C153.056 52.9002 153.95 53.1136 154.763 53.5402C155.576 53.9669 156.223 54.5736 156.703 55.3602C157.196 56.1336 157.443 57.0469 157.443 58.1002C157.456 59.1136 157.29 60.0136 156.943 60.8002C156.61 61.5869 156.123 62.2736 155.483 62.8602C154.856 63.4469 154.083 63.9402 153.163 64.3402C152.256 64.7402 151.223 65.0536 150.063 65.2802L149.143 63.3802ZM144.623 54.1402C144.436 54.1669 144.176 54.2002 143.843 54.2402C143.51 54.2802 143.143 54.3269 142.743 54.3802C142.343 54.4336 141.936 54.4936 141.523 54.5602C141.123 54.6136 140.743 54.6602 140.383 54.7002L140.183 52.6602C140.436 52.6736 140.676 52.6802 140.903 52.6802C141.13 52.6669 141.39 52.6536 141.683 52.6402C141.976 52.6136 142.33 52.5802 142.743 52.5402C143.17 52.4869 143.61 52.4336 144.063 52.3802C144.516 52.3136 144.936 52.2469 145.323 52.1802C145.723 52.1002 146.036 52.0202 146.263 51.9402L146.943 52.7802C146.836 52.9402 146.703 53.1402 146.543 53.3802C146.396 53.6069 146.243 53.8402 146.083 54.0802C145.936 54.3202 145.81 54.5336 145.703 54.7202L144.843 57.9002C144.616 58.2469 144.336 58.6602 144.003 59.1402C143.683 59.6202 143.343 60.1269 142.983 60.6602C142.623 61.1802 142.263 61.7002 141.903 62.2202C141.556 62.7269 141.236 63.1802 140.943 63.5802L139.703 61.8402C139.956 61.5336 140.25 61.1602 140.583 60.7202C140.916 60.2802 141.27 59.8136 141.643 59.3202C142.016 58.8136 142.376 58.3202 142.723 57.8402C143.083 57.3469 143.41 56.8869 143.703 56.4602C143.996 56.0336 144.23 55.6802 144.403 55.4002L144.463 54.6002L144.623 54.1402ZM144.403 50.6002C144.403 50.3469 144.396 50.0802 144.383 49.8002C144.383 49.5202 144.363 49.2469 144.323 48.9802L146.663 49.0602C146.596 49.3402 146.523 49.7669 146.443 50.3402C146.363 50.9136 146.276 51.5802 146.183 52.3402C146.103 53.1002 146.023 53.9002 145.943 54.7402C145.876 55.5802 145.823 56.4136 145.783 57.2402C145.743 58.0669 145.723 58.8336 145.723 59.5402C145.723 60.1136 145.723 60.6669 145.723 61.2002C145.723 61.7336 145.73 62.2669 145.743 62.8002C145.77 63.3336 145.796 63.9069 145.823 64.5202C145.836 64.6936 145.85 64.9069 145.863 65.1602C145.89 65.4269 145.91 65.6669 145.923 65.8802H143.763C143.776 65.7069 143.79 65.4802 143.803 65.2002C143.816 64.9336 143.823 64.7202 143.823 64.5602C143.823 63.9202 143.823 63.3402 143.823 62.8202C143.836 62.2869 143.843 61.7402 143.843 61.1802C143.856 60.6069 143.876 59.9336 143.903 59.1602C143.903 58.8536 143.916 58.4536 143.943 57.9602C143.97 57.4669 144.003 56.9202 144.043 56.3202C144.083 55.7202 144.123 55.1136 144.163 54.5002C144.203 53.8869 144.236 53.3069 144.263 52.7602C144.303 52.2136 144.336 51.7469 144.363 51.3602C144.39 50.9736 144.403 50.7202 144.403 50.6002Z" fill="black"/>
<path d="M120.223 51.6001C120.609 51.5868 120.963 51.5734 121.283 51.5601C121.616 51.5334 121.883 51.5134 122.083 51.5001C122.443 51.4601 122.923 51.4134 123.523 51.3601C124.136 51.2934 124.829 51.2268 125.603 51.1601C126.376 51.0934 127.203 51.0201 128.083 50.9401C128.963 50.8601 129.863 50.7801 130.783 50.7001C131.489 50.6468 132.176 50.6001 132.843 50.5601C133.523 50.5068 134.156 50.4668 134.743 50.4401C135.329 50.4001 135.849 50.3734 136.303 50.3601V52.3801C135.929 52.3668 135.503 52.3668 135.023 52.3801C134.556 52.3934 134.089 52.4201 133.623 52.4601C133.169 52.5001 132.763 52.5668 132.403 52.6601C131.749 52.8601 131.149 53.1734 130.603 53.6001C130.056 54.0268 129.583 54.5201 129.183 55.0801C128.796 55.6401 128.496 56.2334 128.283 56.8601C128.083 57.4868 127.983 58.0934 127.983 58.6801C127.983 59.4134 128.103 60.0534 128.343 60.6001C128.596 61.1334 128.943 61.5934 129.383 61.9801C129.823 62.3534 130.329 62.6668 130.903 62.9201C131.476 63.1601 132.083 63.3401 132.723 63.4601C133.376 63.5801 134.029 63.6534 134.683 63.6801L133.963 65.8201C133.176 65.7801 132.396 65.6601 131.623 65.4601C130.849 65.2734 130.123 65.0068 129.443 64.6601C128.763 64.3001 128.156 63.8534 127.623 63.3201C127.103 62.7868 126.689 62.1734 126.383 61.4801C126.089 60.7868 125.943 60.0001 125.943 59.1201C125.943 58.1068 126.109 57.1734 126.443 56.3201C126.789 55.4668 127.223 54.7268 127.743 54.1001C128.263 53.4601 128.796 52.9668 129.343 52.6201C128.943 52.6601 128.449 52.7134 127.863 52.7801C127.276 52.8334 126.643 52.9001 125.963 52.9801C125.296 53.0601 124.623 53.1468 123.943 53.2401C123.263 53.3201 122.616 53.4068 122.003 53.5001C121.403 53.5934 120.876 53.6868 120.423 53.7801L120.223 51.6001ZM133.423 54.6001C133.583 54.8268 133.763 55.1068 133.963 55.4401C134.163 55.7601 134.363 56.0934 134.563 56.4401C134.763 56.7734 134.929 57.0801 135.063 57.3601L133.823 57.9201C133.583 57.4134 133.329 56.9268 133.063 56.4601C132.809 55.9934 132.529 55.5468 132.223 55.1201L133.423 54.6001ZM135.643 53.7401C135.803 53.9668 135.989 54.2401 136.203 54.5601C136.416 54.8668 136.623 55.1868 136.823 55.5201C137.023 55.8534 137.196 56.1668 137.343 56.4601L136.123 57.0401C135.856 56.5334 135.589 56.0601 135.323 55.6201C135.056 55.1668 134.763 54.7201 134.443 54.2801L135.643 53.7401Z" fill="black"/>
<path d="M102.543 55.5802H113.703V57.4202H102.543V55.5802ZM113.083 55.5802H115.063C115.063 55.5802 115.056 55.6402 115.043 55.7602C115.043 55.8668 115.043 55.9868 115.043 56.1202C115.043 56.2535 115.036 56.3602 115.023 56.4402C114.956 57.9735 114.883 59.2868 114.803 60.3802C114.736 61.4735 114.656 62.3802 114.563 63.1002C114.483 63.8202 114.376 64.3935 114.243 64.8202C114.123 65.2335 113.976 65.5335 113.803 65.7202C113.576 66.0135 113.33 66.2135 113.063 66.3202C112.81 66.4402 112.496 66.5135 112.123 66.5402C111.79 66.5802 111.336 66.6002 110.763 66.6002C110.203 66.6002 109.616 66.5868 109.003 66.5602C108.99 66.2668 108.923 65.9402 108.803 65.5802C108.696 65.2335 108.556 64.9202 108.383 64.6402C108.996 64.6935 109.563 64.7335 110.083 64.7602C110.616 64.7735 111.003 64.7802 111.243 64.7802C111.443 64.7802 111.603 64.7602 111.723 64.7202C111.856 64.6802 111.976 64.6068 112.083 64.5002C112.256 64.3268 112.403 63.9402 112.523 63.3402C112.643 62.7268 112.743 61.8202 112.823 60.6202C112.916 59.4202 113.003 57.8602 113.083 55.9402V55.5802ZM105.063 48.4602L107.083 49.0402C106.59 50.1868 106.01 51.2868 105.343 52.3402C104.676 53.3802 103.95 54.3402 103.163 55.2202C102.376 56.1002 101.556 56.8602 100.703 57.5002C100.596 57.3668 100.443 57.2068 100.243 57.0202C100.043 56.8202 99.8363 56.6268 99.623 56.4402C99.4097 56.2535 99.2297 56.1068 99.083 56.0002C99.923 55.4402 100.716 54.7668 101.463 53.9802C102.223 53.1935 102.91 52.3335 103.523 51.4002C104.15 50.4535 104.663 49.4735 105.063 48.4602ZM112.323 48.4202C112.643 49.0735 113.03 49.7402 113.483 50.4202C113.95 51.1002 114.45 51.7668 114.983 52.4202C115.53 53.0602 116.09 53.6602 116.663 54.2202C117.236 54.7668 117.796 55.2402 118.343 55.6402C118.183 55.7735 117.996 55.9402 117.783 56.1402C117.583 56.3402 117.39 56.5468 117.203 56.7602C117.016 56.9602 116.863 57.1468 116.743 57.3202C116.196 56.8402 115.63 56.2935 115.043 55.6802C114.47 55.0535 113.903 54.3802 113.343 53.6602C112.796 52.9402 112.276 52.2002 111.783 51.4402C111.303 50.6668 110.87 49.9068 110.483 49.1602L112.323 48.4202ZM106.463 56.1202H108.523C108.416 57.2268 108.25 58.3068 108.023 59.3602C107.796 60.4002 107.436 61.3868 106.943 62.3202C106.45 63.2535 105.756 64.1002 104.863 64.8602C103.983 65.6202 102.823 66.2668 101.383 66.8002C101.303 66.6268 101.196 66.4335 101.063 66.2202C100.93 66.0068 100.783 65.8002 100.623 65.6002C100.463 65.4002 100.303 65.2335 100.143 65.1002C101.476 64.6602 102.536 64.1202 103.323 63.4802C104.123 62.8402 104.73 62.1268 105.143 61.3402C105.57 60.5402 105.87 59.7002 106.043 58.8202C106.23 57.9402 106.37 57.0402 106.463 56.1202Z" fill="black"/>
<path d="M94.717 65.0002H92.617V55.5202C92.617 55.1869 92.617 54.8802 92.617 54.6002C92.6303 54.3069 92.6436 54.0269 92.657 53.7602C92.6703 53.4802 92.6836 53.2136 92.697 52.9602C92.5236 53.1336 92.3436 53.3002 92.157 53.4602C91.9703 53.6202 91.757 53.8069 91.517 54.0202L89.957 55.2802L88.877 53.9202L92.957 50.7202H94.717V65.0002Z" fill="black"/>
<path d="M202.04 24.2801C202.626 24.3735 203.286 24.4401 204.02 24.4801C204.766 24.5201 205.533 24.5335 206.32 24.5201C207.106 24.5068 207.86 24.4801 208.58 24.4401C209.3 24.4001 209.92 24.3468 210.44 24.2801V26.3201C209.866 26.3735 209.22 26.4201 208.5 26.4601C207.78 26.4868 207.033 26.5001 206.26 26.5001C205.5 26.5001 204.753 26.4868 204.02 26.4601C203.286 26.4201 202.633 26.3735 202.06 26.3201L202.04 24.2801ZM203.18 32.6001C203.1 32.9468 203.033 33.2601 202.98 33.5401C202.94 33.8201 202.92 34.1001 202.92 34.3801C202.92 34.6068 202.966 34.8201 203.06 35.0201C203.166 35.2201 203.333 35.3935 203.56 35.5401C203.8 35.6868 204.12 35.8068 204.52 35.9001C204.933 35.9801 205.44 36.0201 206.04 36.0201C206.946 36.0201 207.793 35.9801 208.58 35.9001C209.38 35.8068 210.193 35.6668 211.02 35.4801L211.06 37.6201C210.433 37.7401 209.7 37.8401 208.86 37.9201C208.033 37.9868 207.08 38.0201 206 38.0201C204.306 38.0201 203.053 37.7468 202.24 37.2001C201.44 36.6401 201.04 35.8735 201.04 34.9001C201.04 34.5401 201.066 34.1668 201.12 33.7801C201.173 33.3801 201.26 32.9335 201.38 32.4401L203.18 32.6001ZM198.56 22.8401C198.52 22.9601 198.466 23.1201 198.4 23.3201C198.346 23.5068 198.293 23.7001 198.24 23.9001C198.2 24.0868 198.166 24.2401 198.14 24.3601C198.073 24.6935 197.993 25.1001 197.9 25.5801C197.82 26.0468 197.733 26.5601 197.64 27.1201C197.56 27.6668 197.48 28.2268 197.4 28.8001C197.333 29.3601 197.273 29.9068 197.22 30.4401C197.18 30.9735 197.16 31.4601 197.16 31.9001C197.16 32.2468 197.166 32.6001 197.18 32.9601C197.206 33.3068 197.24 33.6668 197.28 34.0401C197.4 33.7735 197.52 33.4935 197.64 33.2001C197.76 32.8935 197.88 32.5935 198 32.3001C198.12 32.0068 198.233 31.7401 198.34 31.5001L199.34 32.3001C199.166 32.7935 198.98 33.3401 198.78 33.9401C198.58 34.5401 198.4 35.1135 198.24 35.6601C198.093 36.1935 197.986 36.6268 197.92 36.9601C197.893 37.0935 197.866 37.2535 197.84 37.4401C197.813 37.6135 197.806 37.7601 197.82 37.8801C197.82 37.9735 197.82 38.0868 197.82 38.2201C197.833 38.3668 197.846 38.5001 197.86 38.6201L196.04 38.7401C195.84 38.0468 195.666 37.1335 195.52 36.0001C195.373 34.8668 195.3 33.6268 195.3 32.2801C195.3 31.5335 195.333 30.7801 195.4 30.0201C195.466 29.2468 195.546 28.5001 195.64 27.7801C195.733 27.0601 195.826 26.4001 195.92 25.8001C196.026 25.2001 196.106 24.7001 196.16 24.3001C196.2 24.0468 196.233 23.7735 196.26 23.4801C196.3 23.1868 196.326 22.9068 196.34 22.6401L198.56 22.8401Z" fill="black"/>
<path d="M183.06 32.8601H191.44V34.4601H183.06V32.8601ZM181.9 37.5201H192.36V39.2001H181.9V37.5201ZM182.76 22.0801H190.34V23.7201H182.76V22.0801ZM186.3 30.4201H188.16V38.5601H186.3V30.4201ZM189.84 22.0801H190.18L190.52 22.0001L191.72 22.4801C191.254 24.0801 190.587 25.4668 189.72 26.6401C188.854 27.8001 187.834 28.7734 186.66 29.5601C185.487 30.3334 184.22 30.9401 182.86 31.3801C182.754 31.1534 182.6 30.8934 182.4 30.6001C182.214 30.2934 182.034 30.0468 181.86 29.8601C182.78 29.6068 183.66 29.2601 184.5 28.8201C185.34 28.3668 186.114 27.8268 186.82 27.2001C187.527 26.5601 188.134 25.8401 188.64 25.0401C189.16 24.2401 189.56 23.3534 189.84 22.3801V22.0801ZM185.16 23.6401C185.574 24.6401 186.134 25.5468 186.84 26.3601C187.547 27.1734 188.387 27.8734 189.36 28.4601C190.334 29.0334 191.414 29.4734 192.6 29.7801C192.48 29.8868 192.34 30.0334 192.18 30.2201C192.034 30.4068 191.894 30.6001 191.76 30.8001C191.64 30.9868 191.534 31.1601 191.44 31.3201C190.187 30.9334 189.054 30.4001 188.04 29.7201C187.04 29.0401 186.167 28.2268 185.42 27.2801C184.674 26.3334 184.06 25.2668 183.58 24.0801L185.16 23.6401ZM173.94 23.1601H182.3V24.8001H173.94V23.1601ZM173.7 34.6801H182.46V36.3401H173.7V34.6801ZM177.26 21.1001H178.96V26.7801H177.26V21.1001ZM177.44 26.8201H178.76V32.5201H178.96V39.7001H177.26V32.5201H177.44V26.8201ZM175.62 30.3201V31.8801H180.62V30.3201H175.62ZM175.62 27.5001V29.0401H180.62V27.5001H175.62ZM174.22 26.1401H182.08V33.2401H174.22V26.1401Z" fill="black"/>
<path d="M157.88 23.1601H171.56V24.7401H157.88V23.1601ZM158.1 26.0601H169.7V27.6001H158.1V26.0601ZM155.78 28.9401H167.6V30.5601H155.78V28.9401ZM157.92 21.0601L159.92 21.4801C159.427 23.0534 158.78 24.5134 157.98 25.8601C157.193 27.2067 156.32 28.3267 155.36 29.2201C155.24 29.1001 155.073 28.9667 154.86 28.8201C154.647 28.6601 154.427 28.5067 154.2 28.3601C153.987 28.2134 153.793 28.0934 153.62 28.0001C154.607 27.2134 155.467 26.2134 156.2 25.0001C156.947 23.7734 157.52 22.4601 157.92 21.0601ZM163.12 30.8001L164.94 31.4001C164.247 32.6534 163.413 33.8134 162.44 34.8801C161.467 35.9467 160.4 36.9001 159.24 37.7401C158.08 38.5801 156.88 39.3067 155.64 39.9201C155.533 39.7867 155.4 39.6267 155.24 39.4401C155.08 39.2534 154.907 39.0667 154.72 38.8801C154.533 38.7067 154.367 38.5601 154.22 38.4401C155.487 37.9201 156.68 37.2801 157.8 36.5201C158.92 35.7601 159.933 34.9001 160.84 33.9401C161.76 32.9667 162.52 31.9201 163.12 30.8001ZM166.94 28.9401H168.88C168.88 30.2067 168.9 31.3801 168.94 32.4601C168.98 33.5267 169.06 34.4667 169.18 35.2801C169.3 36.0801 169.467 36.7067 169.68 37.1601C169.893 37.6134 170.173 37.8401 170.52 37.8401C170.693 37.8267 170.807 37.5667 170.86 37.0601C170.927 36.5534 170.967 35.8801 170.98 35.0401C171.167 35.2534 171.38 35.4667 171.62 35.6801C171.86 35.8934 172.073 36.0667 172.26 36.2001C172.22 37.0267 172.133 37.7001 172 38.2201C171.88 38.7401 171.693 39.1134 171.44 39.3401C171.187 39.5801 170.833 39.7001 170.38 39.7001C169.62 39.7001 169.013 39.4267 168.56 38.8801C168.107 38.3467 167.767 37.6001 167.54 36.6401C167.313 35.6667 167.16 34.5267 167.08 33.2201C167 31.9134 166.953 30.4867 166.94 28.9401ZM156.06 32.7801L157.42 31.5401C158.167 31.9401 158.947 32.3867 159.76 32.8801C160.573 33.3734 161.367 33.8934 162.14 34.4401C162.913 34.9867 163.633 35.5267 164.3 36.0601C164.98 36.5934 165.54 37.1001 165.98 37.5801L164.48 39.0001C164.053 38.5334 163.52 38.0267 162.88 37.4801C162.24 36.9334 161.54 36.3801 160.78 35.8201C160.02 35.2601 159.233 34.7201 158.42 34.2001C157.607 33.6667 156.82 33.1934 156.06 32.7801Z" fill="black"/>
<path d="M141.44 21.9001C141.413 22.0201 141.393 22.1735 141.38 22.3601C141.367 22.5335 141.347 22.7201 141.32 22.9201C141.307 23.1068 141.293 23.2801 141.28 23.4401C141.267 23.7868 141.247 24.2001 141.22 24.6801C141.207 25.1468 141.187 25.6601 141.16 26.2201C141.147 26.7668 141.133 27.3201 141.12 27.8801C141.12 28.4268 141.12 28.9535 141.12 29.4601C141.12 29.9801 141.127 30.5601 141.14 31.2001C141.153 31.8401 141.167 32.4735 141.18 33.1001C141.193 33.7135 141.207 34.2868 141.22 34.8201C141.233 35.3401 141.24 35.7535 141.24 36.0601C141.24 36.7668 141.153 37.3201 140.98 37.7201C140.82 38.1201 140.593 38.4001 140.3 38.5601C140.02 38.7201 139.68 38.8001 139.28 38.8001C138.853 38.8001 138.387 38.7068 137.88 38.5201C137.373 38.3335 136.893 38.0801 136.44 37.7601C135.987 37.4401 135.613 37.0668 135.32 36.6401C135.027 36.2135 134.88 35.7601 134.88 35.2801C134.88 34.6668 135.113 34.0601 135.58 33.4601C136.06 32.8468 136.687 32.2868 137.46 31.7801C138.233 31.2735 139.053 30.8601 139.92 30.5401C140.827 30.2068 141.753 29.9535 142.7 29.7801C143.647 29.6068 144.507 29.5201 145.28 29.5201C146.28 29.5201 147.173 29.6868 147.96 30.0201C148.747 30.3535 149.367 30.8335 149.82 31.4601C150.273 32.0868 150.5 32.8268 150.5 33.6801C150.5 34.4668 150.34 35.1735 150.02 35.8001C149.713 36.4268 149.24 36.9601 148.6 37.4001C147.96 37.8401 147.153 38.1801 146.18 38.4201C145.727 38.5135 145.28 38.5801 144.84 38.6201C144.413 38.6601 144.013 38.6935 143.64 38.7201L142.92 36.6801C143.32 36.6935 143.727 36.6935 144.14 36.6801C144.553 36.6668 144.947 36.6201 145.32 36.5401C145.88 36.4335 146.4 36.2668 146.88 36.0401C147.36 35.8001 147.74 35.4868 148.02 35.1001C148.313 34.7001 148.46 34.2201 148.46 33.6601C148.46 33.1401 148.32 32.7068 148.04 32.3601C147.76 32.0001 147.38 31.7268 146.9 31.5401C146.42 31.3535 145.873 31.2601 145.26 31.2601C144.393 31.2601 143.533 31.3535 142.68 31.5401C141.827 31.7135 140.987 31.9601 140.16 32.2801C139.547 32.5201 138.987 32.8068 138.48 33.1401C137.973 33.4735 137.573 33.8201 137.28 34.1801C136.987 34.5268 136.84 34.8601 136.84 35.1801C136.84 35.3801 136.907 35.5735 137.04 35.7601C137.173 35.9335 137.333 36.0868 137.52 36.2201C137.72 36.3535 137.927 36.4601 138.14 36.5401C138.353 36.6201 138.547 36.6601 138.72 36.6601C138.92 36.6601 139.08 36.5935 139.2 36.4601C139.333 36.3135 139.4 36.0735 139.4 35.7401C139.4 35.3668 139.387 34.8401 139.36 34.1601C139.347 33.4801 139.333 32.7335 139.32 31.9201C139.307 31.0935 139.3 30.3001 139.3 29.5401C139.3 28.9668 139.3 28.3735 139.3 27.7601C139.313 27.1335 139.32 26.5335 139.32 25.9601C139.333 25.3868 139.34 24.8801 139.34 24.4401C139.353 24.0001 139.36 23.6801 139.36 23.4801C139.36 23.3335 139.353 23.1601 139.34 22.9601C139.327 22.7601 139.313 22.5668 139.3 22.3801C139.287 22.1801 139.267 22.0201 139.24 21.9001H141.44ZM147.42 24.1001C147.913 24.3401 148.46 24.6401 149.06 25.0001C149.673 25.3468 150.253 25.7001 150.8 26.0601C151.36 26.4068 151.807 26.7135 152.14 26.9801L151.16 28.5801C150.92 28.3535 150.6 28.1068 150.2 27.8401C149.813 27.5735 149.393 27.3001 148.94 27.0201C148.5 26.7401 148.067 26.4801 147.64 26.2401C147.227 25.9868 146.86 25.7801 146.54 25.6201L147.42 24.1001ZM135.3 25.3601C135.873 25.4268 136.367 25.4735 136.78 25.5001C137.193 25.5135 137.587 25.5201 137.96 25.5201C138.453 25.5201 139.013 25.4935 139.64 25.4401C140.267 25.3868 140.9 25.3201 141.54 25.2401C142.193 25.1601 142.827 25.0601 143.44 24.9401C144.067 24.8068 144.633 24.6668 145.14 24.5201L145.18 26.4801C144.647 26.6001 144.053 26.7135 143.4 26.8201C142.76 26.9268 142.107 27.0268 141.44 27.1201C140.787 27.2001 140.16 27.2668 139.56 27.3201C138.973 27.3601 138.453 27.3801 138 27.3801C137.4 27.3801 136.893 27.3735 136.48 27.3601C136.067 27.3335 135.693 27.3068 135.36 27.2801L135.3 25.3601Z" fill="black"/>
<path d="M120.9 25.9802C121.473 26.0335 122.04 26.0802 122.6 26.1202C123.173 26.1469 123.76 26.1602 124.36 26.1602C125.56 26.1602 126.76 26.1069 127.96 26.0002C129.16 25.8935 130.273 25.7402 131.3 25.5402V27.4802C130.233 27.6535 129.1 27.7802 127.9 27.8602C126.713 27.9402 125.527 27.9869 124.34 28.0002C123.753 28.0002 123.18 27.9869 122.62 27.9602C122.073 27.9335 121.507 27.9002 120.92 27.8602L120.9 25.9802ZM128.16 22.4802C128.133 22.6802 128.107 22.8869 128.08 23.1002C128.067 23.3135 128.053 23.5202 128.04 23.7202C128.027 23.9469 128.013 24.2469 128 24.6202C128 24.9935 127.993 25.4002 127.98 25.8402C127.98 26.2669 127.98 26.6935 127.98 27.1202C127.98 27.9602 127.993 28.7669 128.02 29.5402C128.06 30.3135 128.1 31.0469 128.14 31.7402C128.18 32.4335 128.213 33.0869 128.24 33.7002C128.267 34.3002 128.28 34.8469 128.28 35.3402C128.28 35.7935 128.22 36.2269 128.1 36.6402C127.98 37.0535 127.78 37.4202 127.5 37.7402C127.22 38.0602 126.84 38.3069 126.36 38.4802C125.893 38.6669 125.313 38.7602 124.62 38.7602C123.26 38.7602 122.207 38.4935 121.46 37.9602C120.713 37.4269 120.34 36.6802 120.34 35.7202C120.34 35.1069 120.507 34.5602 120.84 34.0802C121.187 33.6002 121.673 33.2202 122.3 32.9402C122.94 32.6602 123.707 32.5202 124.6 32.5202C125.493 32.5202 126.307 32.6202 127.04 32.8202C127.773 33.0069 128.453 33.2669 129.08 33.6002C129.707 33.9202 130.267 34.2735 130.76 34.6602C131.267 35.0469 131.727 35.4202 132.14 35.7802L131.06 37.4602C130.34 36.7669 129.62 36.1669 128.9 35.6602C128.193 35.1535 127.473 34.7602 126.74 34.4802C126.007 34.2002 125.24 34.0602 124.44 34.0602C123.76 34.0602 123.207 34.1935 122.78 34.4602C122.367 34.7269 122.16 35.0735 122.16 35.5002C122.16 35.9669 122.367 36.3202 122.78 36.5602C123.193 36.7869 123.72 36.9002 124.36 36.9002C124.853 36.9002 125.24 36.8202 125.52 36.6602C125.8 36.5002 126 36.2669 126.12 35.9602C126.24 35.6535 126.3 35.2935 126.3 34.8802C126.3 34.5335 126.287 34.0669 126.26 33.4802C126.233 32.8802 126.2 32.2269 126.16 31.5202C126.12 30.8002 126.087 30.0669 126.06 29.3202C126.033 28.5602 126.02 27.8335 126.02 27.1402C126.02 26.4202 126.02 25.7602 126.02 25.1602C126.02 24.5469 126.02 24.0802 126.02 23.7602C126.02 23.5869 126.007 23.3802 125.98 23.1402C125.967 22.8869 125.94 22.6669 125.9 22.4802H128.16ZM118.34 22.6602C118.3 22.7669 118.253 22.9202 118.2 23.1202C118.147 23.3202 118.093 23.5202 118.04 23.7202C118 23.9202 117.967 24.0802 117.94 24.2002C117.873 24.5202 117.793 24.9335 117.7 25.4402C117.62 25.9335 117.533 26.4802 117.44 27.0802C117.36 27.6669 117.28 28.2669 117.2 28.8802C117.133 29.4935 117.073 30.0802 117.02 30.6402C116.98 31.2002 116.96 31.6935 116.96 32.1202C116.96 32.4669 116.973 32.8202 117 33.1802C117.027 33.5269 117.067 33.8869 117.12 34.2602C117.213 33.9802 117.32 33.6935 117.44 33.4002C117.56 33.0935 117.68 32.7935 117.8 32.5002C117.933 32.2069 118.053 31.9402 118.16 31.7002L119.16 32.4802C118.987 32.9869 118.8 33.5335 118.6 34.1202C118.4 34.6935 118.22 35.2402 118.06 35.7602C117.913 36.2802 117.8 36.7135 117.72 37.0602C117.693 37.1935 117.667 37.3535 117.64 37.5402C117.627 37.7135 117.62 37.8602 117.62 37.9802C117.633 38.0735 117.64 38.1869 117.64 38.3202C117.653 38.4669 117.667 38.6002 117.68 38.7202L115.9 38.8602C115.687 38.1535 115.5 37.2602 115.34 36.1802C115.193 35.0869 115.12 33.8602 115.12 32.5002C115.12 31.7535 115.153 30.9802 115.22 30.1802C115.287 29.3669 115.367 28.5735 115.46 27.8002C115.567 27.0269 115.667 26.3202 115.76 25.6802C115.853 25.0402 115.933 24.5202 116 24.1202C116.027 23.8669 116.053 23.5935 116.08 23.3002C116.12 23.0069 116.147 22.7269 116.16 22.4602L118.34 22.6602Z" fill="black"/>
<path d="M105.18 22.28C105.18 22.3733 105.167 22.52 105.14 22.72C105.127 22.92 105.114 23.12 105.1 23.32C105.087 23.5067 105.08 23.6467 105.08 23.74C105.067 24.0067 105.054 24.36 105.04 24.8C105.04 25.24 105.04 25.7267 105.04 26.26C105.04 26.7933 105.04 27.3333 105.04 27.88C105.054 28.4133 105.06 28.92 105.06 29.4C105.074 29.88 105.08 30.28 105.08 30.6L103.14 29.8C103.14 29.5867 103.14 29.28 103.14 28.88C103.14 28.48 103.14 28.0333 103.14 27.54C103.14 27.0467 103.134 26.5533 103.12 26.06C103.12 25.5533 103.114 25.1 103.1 24.7C103.087 24.2867 103.074 23.9733 103.06 23.76C103.034 23.4267 103.007 23.1267 102.98 22.86C102.954 22.58 102.927 22.3867 102.9 22.28H105.18ZM94.2803 24.94C94.8403 24.94 95.4803 24.9333 96.2003 24.92C96.9203 24.8933 97.6736 24.8733 98.4603 24.86C99.2603 24.8333 100.054 24.8133 100.84 24.8C101.64 24.7867 102.4 24.78 103.12 24.78C103.84 24.7667 104.487 24.76 105.06 24.76C105.62 24.76 106.2 24.76 106.8 24.76C107.4 24.7467 107.974 24.74 108.52 24.74C109.067 24.74 109.56 24.7467 110 24.76C110.44 24.76 110.794 24.76 111.06 24.76L111.04 26.64C110.454 26.6133 109.667 26.5867 108.68 26.56C107.707 26.5333 106.487 26.52 105.02 26.52C104.127 26.52 103.214 26.5333 102.28 26.56C101.347 26.5733 100.414 26.6 99.4803 26.64C98.5469 26.6667 97.6403 26.7 96.7603 26.74C95.8936 26.78 95.0803 26.8267 94.3203 26.88L94.2803 24.94ZM104.92 30.8C104.92 31.7733 104.787 32.5867 104.52 33.24C104.267 33.8933 103.894 34.3867 103.4 34.72C102.92 35.04 102.34 35.2 101.66 35.2C101.247 35.2 100.84 35.1267 100.44 34.98C100.054 34.82 99.6936 34.5933 99.3603 34.3C99.0403 34.0067 98.7803 33.6467 98.5803 33.22C98.3936 32.78 98.3003 32.2733 98.3003 31.7C98.3003 30.9933 98.4669 30.3733 98.8003 29.84C99.1469 29.3067 99.6003 28.8867 100.16 28.58C100.734 28.2733 101.36 28.12 102.04 28.12C102.854 28.12 103.534 28.3067 104.08 28.68C104.64 29.04 105.06 29.54 105.34 30.18C105.62 30.8067 105.76 31.52 105.76 32.32C105.76 32.9867 105.66 33.6733 105.46 34.38C105.26 35.0733 104.927 35.7467 104.46 36.4C103.994 37.0533 103.36 37.6467 102.56 38.18C101.774 38.7133 100.787 39.1533 99.6003 39.5L97.9203 37.84C98.8003 37.64 99.6003 37.3867 100.32 37.08C101.04 36.7733 101.66 36.3933 102.18 35.94C102.714 35.4733 103.12 34.9267 103.4 34.3C103.68 33.66 103.82 32.9133 103.82 32.06C103.82 31.2733 103.64 30.7 103.28 30.34C102.934 29.9667 102.507 29.78 102 29.78C101.694 29.78 101.4 29.8533 101.12 30C100.854 30.1467 100.634 30.36 100.46 30.64C100.287 30.92 100.2 31.2667 100.2 31.68C100.2 32.2267 100.38 32.66 100.74 32.98C101.114 33.3 101.534 33.46 102 33.46C102.387 33.46 102.714 33.3533 102.98 33.14C103.26 32.9133 103.454 32.5667 103.56 32.1C103.667 31.62 103.64 31.0067 103.48 30.26L104.92 30.8ZM107.88 21.8C108.12 22.1467 108.374 22.54 108.64 22.98C108.907 23.42 109.134 23.82 109.32 24.18L107.96 24.78C107.747 24.38 107.52 23.9667 107.28 23.54C107.04 23.1133 106.787 22.72 106.52 22.36L107.88 21.8ZM110.42 21.26C110.66 21.6067 110.914 21.9933 111.18 22.42C111.447 22.8467 111.68 23.2467 111.88 23.62L110.5 24.22C110.3 23.8067 110.074 23.3933 109.82 22.98C109.567 22.5533 109.314 22.1667 109.06 21.82L110.42 21.26Z" fill="black"/>
<path d="M84.6605 22C84.6471 22.1867 84.6271 22.3933 84.6005 22.62C84.5871 22.8333 84.5738 23.08 84.5605 23.36C84.5471 23.5867 84.5338 23.9133 84.5205 24.34C84.5205 24.7667 84.5138 25.24 84.5005 25.76C84.5005 26.2667 84.5005 26.78 84.5005 27.3C84.5005 27.8067 84.5005 28.2733 84.5005 28.7C84.5005 29.3133 84.5138 29.98 84.5405 30.7C84.5805 31.4067 84.6205 32.1067 84.6605 32.8C84.7005 33.4933 84.7338 34.1333 84.7605 34.72C84.8005 35.3067 84.8205 35.7867 84.8205 36.16C84.8205 36.6667 84.6938 37.14 84.4405 37.58C84.1871 38.02 83.7871 38.3733 83.2405 38.64C82.6938 38.92 81.9805 39.06 81.1005 39.06C79.5938 39.06 78.4471 38.7867 77.6605 38.24C76.8738 37.7067 76.4805 36.94 76.4805 35.94C76.4805 35.3 76.6671 34.74 77.0405 34.26C77.4271 33.78 77.9738 33.4067 78.6805 33.14C79.4005 32.86 80.2538 32.72 81.2405 32.72C82.3071 32.72 83.3071 32.84 84.2405 33.08C85.1871 33.32 86.0471 33.6267 86.8205 34C87.6071 34.3733 88.3005 34.7667 88.9005 35.18C89.5005 35.58 90.0071 35.94 90.4205 36.26L89.2605 38.04C88.7938 37.6133 88.2671 37.18 87.6805 36.74C87.0938 36.3 86.4471 35.9 85.7405 35.54C85.0338 35.18 84.2805 34.8933 83.4805 34.68C82.6938 34.4667 81.8605 34.36 80.9805 34.36C80.1271 34.36 79.4738 34.5067 79.0205 34.8C78.5805 35.08 78.3605 35.42 78.3605 35.82C78.3605 36.1 78.4471 36.3533 78.6205 36.58C78.8071 36.7933 79.0805 36.9667 79.4405 37.1C79.8005 37.22 80.2671 37.28 80.8405 37.28C81.2138 37.28 81.5471 37.2333 81.8405 37.14C82.1471 37.0467 82.3871 36.8867 82.5605 36.66C82.7338 36.42 82.8205 36.0867 82.8205 35.66C82.8205 35.3133 82.8071 34.8467 82.7805 34.26C82.7538 33.6733 82.7271 33.04 82.7005 32.36C82.6871 31.6667 82.6671 31 82.6405 30.36C82.6138 29.7067 82.6005 29.1533 82.6005 28.7C82.6005 28.2333 82.6005 27.7533 82.6005 27.26C82.6138 26.7533 82.6205 26.26 82.6205 25.78C82.6205 25.2867 82.6205 24.8267 82.6205 24.4C82.6205 23.96 82.6205 23.58 82.6205 23.26C82.6205 23.0867 82.6138 22.8733 82.6005 22.62C82.5871 22.3533 82.5605 22.1467 82.5205 22H84.6605ZM76.7405 24.04C77.0738 24.0933 77.4605 24.1467 77.9005 24.2C78.3538 24.2533 78.8138 24.3067 79.2805 24.36C79.7605 24.4 80.2138 24.4333 80.6405 24.46C81.0671 24.4733 81.4405 24.48 81.7605 24.48C83.0805 24.48 84.4071 24.4333 85.7405 24.34C87.0738 24.2467 88.4205 24.0867 89.7805 23.86V25.7C89.0605 25.78 88.2605 25.86 87.3805 25.94C86.5005 26.02 85.5805 26.0867 84.6205 26.14C83.6738 26.1933 82.7271 26.22 81.7805 26.22C81.3405 26.22 80.8071 26.2 80.1805 26.16C79.5671 26.12 78.9538 26.0733 78.3405 26.02C77.7271 25.9667 77.2005 25.9133 76.7605 25.86L76.7405 24.04ZM76.6405 28.32C76.9738 28.3733 77.3605 28.4267 77.8005 28.48C78.2405 28.52 78.6938 28.5533 79.1605 28.58C79.6271 28.6067 80.0671 28.6333 80.4805 28.66C80.9071 28.6733 81.2738 28.68 81.5805 28.68C82.6605 28.68 83.6738 28.66 84.6205 28.62C85.5805 28.5667 86.5005 28.5 87.3805 28.42C88.2738 28.3267 89.1405 28.2267 89.9805 28.12L89.9605 29.98C89.2805 30.0733 88.6138 30.1533 87.9605 30.22C87.3071 30.2733 86.6471 30.32 85.9805 30.36C85.3271 30.4 84.6338 30.4267 83.9005 30.44C83.1805 30.4533 82.3938 30.46 81.5405 30.46C81.1271 30.46 80.6271 30.4533 80.0405 30.44C79.4538 30.4133 78.8605 30.38 78.2605 30.34C77.6605 30.3 77.1271 30.2533 76.6605 30.2L76.6405 28.32Z" fill="black"/>
<path d="M20.909 31.3091L53.3479 67.7788L51.6758 68.4232L19.2369 31.9536L20.909 31.3091Z" fill="black"/>
<path d="M267.232 31.3091L234.793 67.7788L236.465 68.4232L268.904 31.9536L267.232 31.3091Z" fill="black"/>
</svg>
