<svg width="33" height="19" viewBox="0 0 33 19" fill="none" xmlns="http://www.w3.org/2000/svg"><path d="M16.2094 15.5023L30.2977 1.41399L31.0048 2.12109L16.2094 16.9165L1.41406 2.12109L2.12117 1.41399L16.2094 15.5023Z" fill="black"/><path d="M16.2094 15.5023L15.5023 16.2094L16.2094 16.9165L16.9165 16.2094L16.2094 15.5023ZM30.2977 1.41399L31.0048 0.70688L30.2977 -0.000226557L29.5906 0.70688L30.2977 1.41399ZM31.0048 2.12109L31.7119 2.8282L32.419 2.12109L31.7119 1.41399L31.0048 2.12109ZM16.2094 16.9165L15.5023 17.6236L16.2094 18.3307L16.9165 17.6236L16.2094 16.9165ZM1.41406 2.12109L0.706956 1.41399L-0.000151038 2.12109L0.706956 2.8282L1.41406 2.12109ZM2.12117 1.41399L2.82828 0.70688L2.12117 -0.000226557L1.41406 0.70688L2.12117 1.41399ZM16.2094 15.5023L16.9165 16.2094L31.0048 2.12109L30.2977 1.41399L29.5906 0.70688L15.5023 14.7952L16.2094 15.5023ZM30.2977 1.41399L29.5906 2.12109L30.2977 2.8282L31.0048 2.12109L31.7119 1.41399L31.0048 0.70688L30.2977 1.41399ZM31.0048 2.12109L30.2977 1.41399L15.5023 16.2094L16.2094 16.9165L16.9165 17.6236L31.7119 2.8282L31.0048 2.12109ZM16.2094 16.9165L16.9165 16.2094L2.12117 1.41399L1.41406 2.12109L0.706956 2.8282L15.5023 17.6236L16.2094 16.9165ZM1.41406 2.12109L2.12117 2.8282L2.82828 2.12109L2.12117 1.41399L1.41406 0.70688L0.706956 1.41399L1.41406 2.12109ZM2.12117 1.41399L1.41406 2.12109L15.5023 16.2094L16.2094 15.5023L16.9165 14.7952L2.82828 0.70688L2.12117 1.41399Z" fill="#AEABAB"/></svg>