<svg width="54" height="54" viewBox="0 0 54 54" fill="none" xmlns="http://www.w3.org/2000/svg">
<circle cx="27" cy="27" r="27" fill="#FAEE00"/>
<path d="M38.1 25.112C38.1 27.152 37.836 29.012 37.308 30.692C36.78 32.348 35.988 33.764 34.932 34.94C33.876 36.116 32.556 36.992 30.972 37.568L37.128 44.12H31.8L26.904 38.324C26.784 38.324 26.652 38.324 26.508 38.324C26.388 38.348 26.268 38.36 26.148 38.36C24.108 38.36 22.332 38.048 20.82 37.424C19.332 36.776 18.084 35.876 17.076 34.724C16.092 33.548 15.36 32.144 14.88 30.512C14.4 28.88 14.16 27.068 14.16 25.076C14.16 22.436 14.592 20.132 15.456 18.164C16.32 16.196 17.64 14.66 19.416 13.556C21.216 12.452 23.472 11.9 26.184 11.9C28.824 11.9 31.02 12.452 32.772 13.556C34.548 14.636 35.88 16.172 36.768 18.164C37.656 20.132 38.1 22.448 38.1 25.112ZM18.264 25.112C18.264 27.176 18.54 28.952 19.092 30.44C19.644 31.904 20.508 33.044 21.684 33.86C22.86 34.652 24.348 35.048 26.148 35.048C27.972 35.048 29.46 34.652 30.612 33.86C31.764 33.044 32.616 31.904 33.168 30.44C33.72 28.952 33.996 27.176 33.996 25.112C33.996 22.016 33.372 19.604 32.124 17.876C30.9 16.124 28.92 15.248 26.184 15.248C24.36 15.248 22.86 15.644 21.684 16.436C20.508 17.228 19.644 18.356 19.092 19.82C18.54 21.284 18.264 23.048 18.264 25.112Z" fill="white"/>
</svg>
