<svg width="16" height="27" viewBox="0 0 16 27" fill="none" xmlns="http://www.w3.org/2000/svg">
<path d="M12.3092 13.0168L1.41399 2.12154L2.12109 1.41444L13.7234 13.0168L2.12109 24.6191L1.41399 23.912L12.3092 13.0168Z" fill="black"/>
<path d="M12.3092 13.0168L13.0163 13.7239L13.7234 13.0168L13.0163 12.3097L12.3092 13.0168ZM1.41399 2.12154L0.70688 1.41444L-0.000226557 2.12154L0.70688 2.82865L1.41399 2.12154ZM2.12109 1.41444L2.8282 0.707331L2.12109 0.00022409L1.41399 0.707331L2.12109 1.41444ZM13.7234 13.0168L14.4306 13.7239L15.1377 13.0168L14.4306 12.3097L13.7234 13.0168ZM2.12109 24.6191L1.41399 25.3262L2.12109 26.0334L2.8282 25.3262L2.12109 24.6191ZM1.41399 23.912L0.70688 23.2049L-0.000226557 23.912L0.70688 24.6191L1.41399 23.912ZM12.3092 13.0168L13.0163 12.3097L2.12109 1.41444L1.41399 2.12154L0.70688 2.82865L11.6021 13.7239L12.3092 13.0168ZM1.41399 2.12154L2.12109 2.82865L2.8282 2.12154L2.12109 1.41444L1.41399 0.707331L0.70688 1.41444L1.41399 2.12154ZM2.12109 1.41444L1.41399 2.12154L13.0163 13.7239L13.7234 13.0168L14.4306 12.3097L2.8282 0.707331L2.12109 1.41444ZM13.7234 13.0168L13.0163 12.3097L1.41399 23.912L2.12109 24.6191L2.8282 25.3262L14.4306 13.7239L13.7234 13.0168ZM2.12109 24.6191L2.8282 23.912L2.12109 23.2049L1.41399 23.912L0.70688 24.6191L1.41399 25.3262L2.12109 24.6191ZM1.41399 23.912L2.12109 24.6191L13.0163 13.7239L12.3092 13.0168L11.6021 12.3097L0.70688 23.2049L1.41399 23.912Z" fill="black"/>
</svg>
